<svg height="511pt" viewBox="-37 0 511 511.99763" width="511pt" xmlns="http://www.w3.org/2000/svg"><path d="m384.3125 504.511719c-25.640625 0-46.425781-20.785157-46.425781-46.421875v-369.609375h84.859375c4.410156 0 7.988281 3.578125 7.988281 7.988281v361.621094c0 25.636718-20.785156 46.421875-46.421875 46.421875zm0 0" fill="#bececc"/><path d="m430.734375 96.46875v360.847656c0 25.734375-20.605469 47.152344-46.339844 47.199219-4.992187.007813-9.804687-.769531-14.3125-2.226563 18.683594-6.011718 32.191407-23.523437 32.191407-44.199218v-369.605469h20.476562c4.410156 0 7.984375 3.574219 7.984375 7.984375zm0 0" fill="#acbcba"/><path d="m384.3125 504.511719h-304.996094c-39.394531 0-71.332031-31.9375-71.332031-71.332031v-418.511719c0-3.707031 4.277344-6.375 8.550781-5.339844l44.570313 10.828125c1.226562.300781 2.503906.300781 3.730469 0l51.25-12.445312c1.222656-.300782 2.503906-.300782 3.726562 0l51.25 12.445312c1.226562.300781 2.507812.300781 3.730469 0l51.25-12.445312c1.222656-.300782 2.503906-.300782 3.738281 0l51.25 12.445312c1.226562.300781 2.507812.300781 3.730469 0l44.582031-10.828125c4.273438-1.035156 8.539062 1.632813 8.539062 5.339844v443.425781c0 25.636719 20.785157 46.417969 46.429688 46.417969zm0 0" fill="#e6f2ec"/><path d="m430.734375 150.003906c4.132813 0 7.488281-3.351562 7.488281-7.484375v-46.050781c0-8.535156-6.945312-15.476562-15.476562-15.476562h-77.375v-66.324219c0-3.835938-1.800782-7.453125-4.945313-9.925781-3.527343-2.777344-8.332031-3.785157-12.847656-2.691407l-44.601563 10.835938c-.050781.011719-.105468.011719-.175781-.003907l-51.246093-12.445312c-2.390626-.582031-4.914063-.582031-7.277344 0l-51.265625 12.449219c-.054688.011719-.109375.011719-.179688-.003907l-51.230469-12.441406c-2.390624-.585937-4.914062-.585937-7.28125-.003906l-51.269531 12.449219c-.050781.011719-.105469.015625-.175781-.003907l-44.578125-10.835937c-4.511719-1.089844-9.316406-.082031-12.851563 2.699219-3.144531 2.46875-4.945312 6.089844-4.945312 9.921875v364.757812c0 4.132813 3.351562 7.488281 7.488281 7.488281 4.132813 0 7.488281-3.355468 7.488281-7.488281v-362.652343l43.84375 10.65625c2.386719.585937 4.914063.585937 7.28125.003906l51.269532-12.449219c.050781-.011719.105468-.011719.175781.003906l51.230469 12.441407c2.390625.585937 4.914062.585937 7.285156.003906l51.265625-12.449219c.058594-.015625.117187-.011719.1875.003906l51.230469 12.4375c2.390625.585938 4.914062.585938 7.285156.003907l43.863281-10.65625v441.316406c0 14.046875 5.519531 27.523437 15.320313 37.585937.300781.304688.601562.609375.90625.910157.148437.144531.285156.292968.433594.4375h-267.734376c-35.203124 0-63.84375-28.640626-63.84375-63.847657v-19.433593c0-4.136719-3.355468-7.488282-7.488281-7.488282-4.136719 0-7.488281 3.351563-7.488281 7.488282v19.433593c0 43.460938 35.355469 78.820313 78.820312 78.820313h304.953126.039062c29.722656 0 53.910156-24.183594 53.910156-53.910156v-280.960938c0-4.132812-3.355468-7.488281-7.488281-7.488281-4.136719 0-7.488281 3.355469-7.488281 7.488281v280.960938c0 21.464843-17.457032 38.925781-38.933594 38.933593-8.703125 0-16.75-2.871093-23.242188-7.714843-9.519531-7.101563-15.695312-18.453126-15.695312-31.21875v-362.117188h77.371094c.273437 0 .496094.226562.496094.5v46.050781c.003906 4.132813 3.355468 7.484375 7.492187 7.484375zm0 0"/><path d="m146.460938 157.683594c-3.902344 0-7.050782 5.289062-7.050782 8.8125 0 7.050781 11.457032 15.238281 26.695313 15.613281v3.527344c0 1.636719 1.886719 3.148437 4.28125 3.148437 2.140625 0 4.277343-1.511718 4.277343-3.148437v-3.902344c14.105469-2.269531 23.796876-11.207031 23.796876-26.695313 0-17.125-12.589844-22.789062-23.796876-26.941406v-22.160156c8.4375.628906 11.332032 4.65625 14.859376 4.65625 4.660156 0 6.671874-5.789062 6.671874-8.6875 0-7.300781-13.34375-9.695312-21.527343-9.945312v-3.273438c0-1.636719-2.140625-3.148438-4.28125-3.148438-2.394531 0-4.28125 1.511719-4.28125 3.148438v3.523438c-12.589844 1.636718-24.425781 8.5625-24.425781 24.554687 0 16.113281 12.96875 21.023437 24.425781 25.304687v25.058594c-11.082031-1.261718-14.859375-9.445312-19.644531-9.445312zm27.199218-12.589844c5.414063 2.390625 9.441406 5.414062 9.441406 11.582031 0 5.917969-3.902343 9.191407-9.441406 10.324219zm-16.621094-29.96875c0-4.78125 3.777344-7.804688 10.074219-8.8125v19.011719c-5.792969-2.265625-10.074219-4.65625-10.074219-10.199219zm0 0"/><path d="m74.355469 250.746094h13.976562c4.136719 0 7.488281-3.351563 7.488281-7.488282 0-4.132812-3.351562-7.484374-7.488281-7.484374h-13.976562c-4.136719 0-7.488281 3.351562-7.488281 7.484374 0 4.136719 3.351562 7.488282 7.488281 7.488282zm0 0"/><path d="m122.777344 250.746094h141.246094c4.136718 0 7.488281-3.351563 7.488281-7.488282 0-4.132812-3.351563-7.484374-7.488281-7.484374h-141.246094c-4.136719 0-7.488282 3.351562-7.488282 7.484374 0 4.136719 3.351563 7.488282 7.488282 7.488282zm0 0"/><path d="m264.023438 266.3125h-189.667969c-4.136719 0-7.488281 3.351562-7.488281 7.488281s3.351562 7.488281 7.488281 7.488281h189.667969c4.136718 0 7.488281-3.351562 7.488281-7.488281s-3.351563-7.488281-7.488281-7.488281zm0 0"/><path d="m74.355469 324.46875h13.976562c4.136719 0 7.488281-3.351562 7.488281-7.484375 0-4.136719-3.351562-7.488281-7.488281-7.488281h-13.976562c-4.136719 0-7.488281 3.351562-7.488281 7.488281 0 4.132813 3.351562 7.484375 7.488281 7.484375zm0 0"/><path d="m264.023438 309.496094h-141.246094c-4.136719 0-7.488282 3.351562-7.488282 7.488281 0 4.132813 3.351563 7.484375 7.488282 7.484375h141.246094c4.136718 0 7.488281-3.351562 7.488281-7.484375 0-4.136719-3.351563-7.488281-7.488281-7.488281zm0 0"/><path d="m264.023438 340.035156h-189.667969c-4.136719 0-7.488281 3.351563-7.488281 7.488282 0 4.136718 3.351562 7.488281 7.488281 7.488281h189.667969c4.136718 0 7.488281-3.351563 7.488281-7.488281 0-4.136719-3.351563-7.488282-7.488281-7.488282zm0 0"/><path d="m74.355469 398.195312h13.976562c4.136719 0 7.488281-3.355468 7.488281-7.488281 0-4.136719-3.351562-7.488281-7.488281-7.488281h-13.976562c-4.136719 0-7.488281 3.351562-7.488281 7.488281 0 4.132813 3.351562 7.488281 7.488281 7.488281zm0 0"/><path d="m264.023438 383.21875h-141.246094c-4.136719 0-7.488282 3.351562-7.488282 7.488281 0 4.132813 3.351563 7.488281 7.488282 7.488281h141.246094c4.136718 0 7.488281-3.355468 7.488281-7.488281 0-4.136719-3.351563-7.488281-7.488281-7.488281zm0 0"/><path d="m264.023438 413.757812h-189.667969c-4.136719 0-7.488281 3.351563-7.488281 7.488282 0 4.136718 3.351562 7.488281 7.488281 7.488281h189.667969c4.136718 0 7.488281-3.351563 7.488281-7.488281 0-4.132813-3.351563-7.488282-7.488281-7.488282zm0 0"/></svg>